<?xml version="1.0" encoding="utf-8"?>
<!-- Generator: Adobe Illustrator 22.1.0, SVG Export Plug-In . SVG Version: 6.00 Build 0)  -->
<svg version="1.1" id="Layer_1" xmlns="http://www.w3.org/2000/svg" xmlns:xlink="http://www.w3.org/1999/xlink" x="0px" y="0px"
	 viewBox="0 0 648 433" style="enable-background:new 0 0 648 433;" xml:space="preserve">
<style type="text/css">
	.st0{fill:none;}
	.st1{fill:none;stroke:#F9E708;stroke-miterlimit:10;}
	.st2{fill:none;stroke:#F9E708;stroke-linecap:round;stroke-miterlimit:10;}
	.st3{fill:#0B0D38;}
	.st4{fill:none;stroke:#F9E708;stroke-width:0.75;stroke-miterlimit:10;}
	.st5{fill:none;stroke:#F9E708;stroke-width:0.75;stroke-linecap:round;stroke-miterlimit:10;}
	.st6{fill:url(#New_Pattern_3);}
</style>
<pattern  x="342" y="-215" width="72" height="100.8" patternUnits="userSpaceOnUse" id="New_Pattern_3" viewBox="0 -100.8 72 100.8" style="overflow:visible;">
	<g>
		<rect y="-100.8" class="st0" width="72" height="100.8"/>
		<path class="st1" d="M30.8-10.8c0,0,0,0.1,0,0.1c0,1.6,2,3,4.5,3s4.5-1.3,4.5-3c0,0,0-0.1,0-0.1H30.8z"/>
		<path class="st1" d="M54.1-59.5c0-10.7-9-20.1-18.6-20.1S16.3-69.7,16.3-59c0,6.2,3.1,15.3,7.6,21.7v8h22.4l0.1-8.2
			C50.9-44.1,54.1-53.3,54.1-59.5z"/>
		<path class="st1" d="M44.5-23.2H25.6c-1.2,0-2.3-1-2.3-2.3v0c0-1.2,1-2.3,2.3-2.3h18.9c1.2,0,2.3,1,2.3,2.3v0
			C46.8-24.2,45.7-23.2,44.5-23.2z"/>
		<path class="st1" d="M44.5-17H25.6c-1.2,0-2.3-1-2.3-2.3v0c0-1.2,1-2.3,2.3-2.3h18.9c1.2,0,2.3,1,2.3,2.3v0
			C46.8-18,45.7-17,44.5-17z"/>
		<path class="st1" d="M23.4-15.1c0,0,0,0.1,0,0.1c0,2.7,5.2,4.9,11.6,4.9s11.6-2.2,11.6-4.9c0,0,0-0.1,0-0.1H23.4z"/>
		<line class="st2" x1="56.2" y1="-71.3" x2="65" y2="-75.2"/>
		<line class="st2" x1="7" y1="-74.9" x2="15.8" y2="-71.1"/>
		<line class="st2" x1="12.3" y1="-83.6" x2="20" y2="-77.7"/>
		<line class="st2" x1="41.3" y1="-83.3" x2="44.5" y2="-92.4"/>
		<line class="st2" x1="50.5" y1="-77.6" x2="57.9" y2="-83.8"/>
		<line class="st2" x1="30.4" y1="-83.1" x2="28.2" y2="-92.5"/>
		<line class="st2" x1="24.6" y1="-81.3" x2="18.8" y2="-89.1"/>
		<line class="st2" x1="35.5" y1="-83.5" x2="35.1" y2="-93.1"/>
		<line class="st2" x1="46.1" y1="-82" x2="51.7" y2="-89.9"/>
		<polyline class="st2" points="34.5,-29.8 34,-51 38.8,-58.9 		"/>
		<line class="st2" x1="34" y1="-51" x2="28.5" y2="-59.4"/>
	</g>
</pattern>
<rect y="1" class="st3" width="648" height="433"/>
<g>
	<g>
		<path class="st4" d="M-181.3,76.2c0,0,0,0.1,0,0.1c0,1.6,2,3,4.5,3c2.5,0,4.5-1.3,4.5-3c0,0,0-0.1,0-0.1H-181.3z"/>
	</g>
	<path class="st4" d="M-158,27.4c0-10.7-9-20.1-18.6-20.1c-9.7,0-19.1,9.9-19.1,20.5c0,6.2,3.1,15.3,7.6,21.7v8h22.4l0.1-8.2
		C-161.1,42.8-158,33.6-158,27.4z"/>
	<path class="st4" d="M-167.5,63.7h-18.9c-1.2,0-2.3-1-2.3-2.3v0c0-1.2,1-2.3,2.3-2.3h18.9c1.2,0,2.3,1,2.3,2.3v0
		C-165.3,62.7-166.3,63.7-167.5,63.7z"/>
	<path class="st4" d="M-167.5,69.9h-18.9c-1.2,0-2.3-1-2.3-2.3v0c0-1.2,1-2.3,2.3-2.3h18.9c1.2,0,2.3,1,2.3,2.3v0
		C-165.3,68.9-166.3,69.9-167.5,69.9z"/>
	<g>
		<path class="st4" d="M-188.7,71.9c0,0,0,0.1,0,0.1c0,2.7,5.2,4.9,11.6,4.9s11.6-2.2,11.6-4.9c0,0,0-0.1,0-0.1H-188.7z"/>
	</g>
	<line class="st5" x1="-155.8" y1="15.6" x2="-147" y2="11.7"/>
	<line class="st5" x1="-205.1" y1="12" x2="-196.2" y2="15.8"/>
	<line class="st5" x1="-199.7" y1="3.3" x2="-192" y2="9.2"/>
	<line class="st5" x1="-170.7" y1="3.7" x2="-167.5" y2="-5.5"/>
	<line class="st5" x1="-161.6" y1="9.4" x2="-154.2" y2="3.2"/>
	<line class="st5" x1="-181.6" y1="3.8" x2="-183.8" y2="-5.6"/>
	<line class="st5" x1="-187.4" y1="5.6" x2="-193.3" y2="-2.1"/>
	<line class="st5" x1="-176.5" y1="3.4" x2="-177" y2="-6.2"/>
	<line class="st5" x1="-165.9" y1="5" x2="-160.4" y2="-3"/>
	<polyline class="st5" points="-177.6,57.2 -178.1,35.9 -173.3,28 	"/>
	<line class="st5" x1="-178.1" y1="35.9" x2="-183.6" y2="27.5"/>
</g>
<rect x="-3" class="st6" width="653" height="435"/>
<g>
</g>
<g>
</g>
<g>
</g>
<g>
</g>
<g>
</g>
<g>
</g>
<g>
</g>
<g>
</g>
<g>
</g>
<g>
</g>
<g>
</g>
<g>
</g>
<g>
</g>
<g>
</g>
<g>
</g>
</svg>
